<svg width="50" height="50" viewBox="0 0 50 50" fill="none" xmlns="http://www.w3.org/2000/svg">
  <path d="M21.3242 26.4812L23.1371 29.4421L21.3242 26.4812Z" fill="black"/>
  <path d="M15.1041 -4.45694e-05C15.0544 0.0305782 15.0047 0.0612039 14.9551 0.0918934C14.9985 0.111119 15.0534 0.0875114 15.1041 -4.45694e-05Z" fill="black"/>
  <path d="M19.1749 1.02907C18.5047 1.00685 17.8233 1.00972 17.5079 1.0486C17.2601 1.09303 16.9446 1.17082 16.8094 1.24858C16.6742 1.32634 16.3701 1.38185 16.1335 1.38185C15.897 1.38185 15.5592 1.45961 15.379 1.54848C15.1987 1.64845 14.9734 1.69278 14.8945 1.65945C14.8044 1.63724 14.534 1.70389 14.2975 1.82608C14.0497 1.94827 13.8019 2.04836 13.7456 2.04836C13.6892 2.04836 13.3401 2.226 12.9796 2.44817C12.6191 2.65923 12.2249 2.89258 12.101 2.97034C11.121 3.55909 9.45376 5.03643 9.45376 5.32525C9.45376 5.40301 9.34122 5.54757 9.21731 5.66974C8.85685 5.98077 7.8768 7.4915 7.8768 7.72475C7.8768 7.83584 7.80913 7.96915 7.73028 8.01359C7.56131 8.12467 7.08824 9.0689 7.08824 9.30218C7.08824 9.40216 7.04329 9.51326 6.97571 9.54659C6.91938 9.57991 6.86301 9.72421 6.86301 9.86862C6.86301 10.0019 6.78416 10.2131 6.69404 10.3353C6.60393 10.4575 6.52507 10.8017 6.52507 11.1572C6.52507 11.5127 6.44622 11.8571 6.35611 11.9793C6.26599 12.1015 6.18714 12.3015 6.18714 12.4347C6.18714 12.568 6.13081 12.7236 6.06322 12.7903C5.88299 12.968 6.13077 13.079 6.41238 12.9346C6.59261 12.8347 6.61519 12.768 6.52507 12.5903C6.37864 12.3237 6.46882 12.157 6.76169 12.157C6.9419 12.157 6.95317 12.1237 6.85179 11.9459C6.75041 11.7904 6.75041 11.6126 6.85179 11.2016C6.98696 10.6351 7.43745 9.44653 7.71906 8.90221C7.80917 8.7245 7.8768 8.49126 7.8768 8.3802C7.8768 8.258 8.0119 8.10241 8.19213 8.02465C8.37234 7.93578 8.4964 7.79138 8.4964 7.64697C8.4964 7.52478 8.55276 7.3471 8.62032 7.25823C8.68791 7.16936 8.85686 6.85825 9.0033 6.56943C9.22103 6.09702 9.27239 6.05474 9.42802 6.19256C9.52411 6.07121 9.62217 5.95312 9.75259 5.86435C9.66369 5.79604 9.56646 5.72251 9.56646 5.6808C9.56646 5.50309 11.5715 3.71463 11.763 3.71463C11.7968 3.71463 12.0672 3.53679 12.3488 3.32573C12.6304 3.11467 12.9346 2.93698 13.0134 2.93698C13.0923 2.93698 13.3063 2.81474 13.4865 2.65922C13.678 2.5037 13.9145 2.38161 14.0158 2.38161C14.1172 2.38161 14.3426 2.31492 14.5003 2.22605C14.9846 1.98166 15.5591 1.80397 16.1561 1.7151C16.4715 1.65956 16.8771 1.55948 17.0686 1.49283C17.5305 1.3262 19.8396 1.40411 20.8872 1.62626C21.8672 1.82621 23.8385 2.60378 24.5143 3.04812C24.7847 3.22586 25.0437 3.38138 25.0887 3.38138C25.2577 3.39249 26.1251 4.25898 26.1251 4.4145C26.1251 4.53669 26.2716 4.61431 26.5532 4.65875C26.8798 4.71429 27.1164 4.89208 27.7247 5.52524C28.4907 6.34727 28.8173 6.45835 28.423 5.76965C28.1414 5.28088 27.2741 4.38114 27.0939 4.38114C27.0263 4.38114 26.7898 4.21448 26.5758 4.01453C26.3617 3.8146 25.9336 3.47023 25.6182 3.25917C25.3141 3.04811 24.9874 2.81476 24.9085 2.737C24.8297 2.67035 24.6607 2.60373 24.5368 2.60373C24.4242 2.60373 24.3228 2.55932 24.3228 2.51488C24.3228 2.39269 23.3992 1.93722 23.1514 1.93722C23.05 1.93722 22.971 1.88162 22.971 1.82608C22.971 1.75943 22.881 1.7151 22.7796 1.7151C22.667 1.7151 22.4417 1.64841 22.2727 1.55954C22.1038 1.47067 21.7996 1.37075 21.5969 1.33743C21.3941 1.29299 21.0223 1.21511 20.7745 1.15957C20.5042 1.09847 19.8451 1.05129 19.1749 1.02907Z" fill="black"/>
  <path d="M33.744 6.27782C32.7232 6.27782 31.7065 6.33061 31.4192 6.43614C31.2052 6.5139 30.8898 6.59171 30.7321 6.59171C30.5744 6.60281 30.3492 6.68053 30.2252 6.7694C30.1126 6.85826 29.9324 6.93603 29.8423 6.93603C29.7521 6.93603 29.5268 7.01379 29.3466 7.10265C29.1776 7.19152 28.9636 7.26928 28.8847 7.26928C28.8059 7.26928 28.6821 7.34704 28.6032 7.43591C28.5244 7.52478 28.3891 7.60254 28.299 7.60254C28.1413 7.60254 27.4542 8.03579 27.3866 8.1802C27.3641 8.23574 27.2965 8.26904 27.2289 8.26904C26.9474 8.26904 24.6606 10.3242 24.6606 10.5797C24.6606 10.6463 24.6268 10.7129 24.5817 10.7351C24.4803 10.7684 24.0635 11.3462 23.9509 11.6016C23.9058 11.6905 23.7707 11.9127 23.6468 12.1015C23.3652 12.5347 22.9709 13.3345 22.9709 13.49C22.9709 13.5455 22.9259 13.69 22.8696 13.8011C22.5092 14.4564 22.2951 14.9675 22.2951 15.1341C22.2951 15.3562 22.0924 15.6006 21.9009 15.6006C21.8445 15.6006 21.6417 15.4673 21.4502 15.2897C21.0335 14.9009 20.6166 14.6786 19.3326 14.1233C18.7356 13.8567 16.0883 13.8456 15.6942 14.0899C15.5477 14.1899 15.345 14.2676 15.2323 14.2676C15.1197 14.2676 14.9169 14.3454 14.7817 14.4343C14.6578 14.5231 14.3424 14.6232 14.0946 14.6676C13.723 14.7231 13.6216 14.7008 13.5314 14.5231C13.3737 14.2343 12.5401 13.9566 12.3599 14.1344C12.1797 14.312 11.808 14.301 11.5489 14.101C11.2448 13.8789 10.7041 13.89 10.445 14.1233C10.2648 14.2788 10.1859 14.2899 10.017 14.1788C9.62272 13.9344 8.96924 14.0788 8.74396 14.4453C8.68763 14.5564 8.4174 14.6009 7.95556 14.6009C7.18966 14.6009 7.0093 14.7232 6.63766 15.434C6.50248 15.7117 6.37846 15.7784 5.90536 15.8561C5.18452 15.9672 4.73386 16.445 4.7226 17.0892C4.7226 17.3558 4.6551 17.5668 4.53119 17.6557C4.24966 17.8667 4.26084 18.8332 4.55363 19.1553L4.77903 19.3997L4.4411 19.6996C4.2496 19.8551 3.79903 20.3439 3.4273 20.7772C2.43611 21.9324 2.35707 22.0324 2.35707 22.1546C2.35707 22.2213 2.30086 22.2657 2.24454 22.2657C2.17695 22.2657 2.08676 22.3547 2.05297 22.4547C2.00791 22.5657 1.76007 22.9435 1.48981 23.2878C1.21946 23.6322 1.00535 23.9431 1.00535 23.9764C1.00535 24.0098 0.858832 24.2541 0.667416 24.5207C0.487185 24.7984 0.329484 25.0984 0.329484 25.1872C0.329484 25.2761 0.250554 25.4094 0.160518 25.4871C-0.0535059 25.6649 -0.0535059 26.2649 0.160518 26.6758C0.250554 26.8425 0.35212 27.1647 0.385913 27.3868C0.430971 27.6756 0.53235 27.8201 0.723845 27.9089C0.881547 27.9756 1.00535 28.0866 1.00535 28.1421C1.00535 28.5642 1.90662 28.7419 2.51482 28.431C2.68378 28.3421 2.92029 28.2643 3.03294 28.2643C3.14558 28.2643 3.40473 28.1976 3.60749 28.1088C3.82151 28.0311 4.53127 27.931 5.20705 27.8977C6.33342 27.8422 6.42353 27.8533 6.53618 28.0643C6.62629 28.2199 6.62625 28.3642 6.5474 28.5309C6.06303 29.575 6.04053 29.6641 6.24329 30.0528C6.43479 30.4083 6.43479 30.4527 6.24329 31.0081C6.0518 31.5635 6.0518 31.5969 6.24329 32.0079C6.35594 32.2412 6.50249 32.5078 6.59261 32.5966C6.69399 32.7188 6.72763 33.0633 6.71636 33.7186C6.7051 34.485 6.73893 34.7628 6.91916 35.096C7.15571 35.5293 7.80903 36.2624 7.978 36.2624C8.20329 36.2624 8.6764 36.7402 8.60882 36.9068C8.5187 37.1512 8.77798 38.3509 8.95813 38.4953C9.04825 38.562 9.11571 38.6619 9.11571 38.7174C9.11571 38.8952 9.73526 39.4061 10.1295 39.5506C10.5238 39.695 10.6365 39.806 10.7379 40.1059C11.0082 41.0167 11.5151 41.639 12.3261 42.0389C12.8329 42.2943 13.3738 42.3166 13.9256 42.1277C14.3987 41.9611 14.5226 42.0943 14.5226 42.772C14.5226 43.0274 14.6015 43.4497 14.6916 43.7052C14.7817 43.9606 14.8606 44.3605 14.8606 44.5938C14.8606 44.827 14.9394 45.2269 15.0295 45.4824C15.1196 45.7379 15.1985 46.1601 15.1985 46.4156C15.1985 46.6599 15.2773 47.1487 15.3675 47.482C15.4576 47.8151 15.5364 48.393 15.5364 48.7595C15.5364 49.6593 15.728 49.9259 16.37 49.9259C16.798 49.9259 16.8771 49.8925 16.9896 49.6149C17.0572 49.4483 17.1698 48.0596 17.2261 46.5378C17.3837 43.0611 17.4288 42.6498 17.733 42.6498C17.9807 42.6498 18.0934 42.9943 18.2399 44.2605C18.2961 44.7159 18.3863 45.3936 18.4539 45.7602C18.5102 46.1267 18.5891 47.0821 18.6229 47.893C18.6679 48.7038 18.7468 49.4815 18.8144 49.637C19.0285 50.0813 19.603 50.1258 20.0761 49.7259C20.2224 49.5926 20.2675 49.3816 20.2675 48.7151C20.2787 48.2486 20.3463 47.5485 20.4364 47.1487C20.5266 46.7488 20.5941 46.1489 20.6054 45.8157C20.6054 45.4824 20.6617 45.0047 20.7293 44.7604C20.8082 44.516 20.8871 43.9383 20.9321 43.4829C21.011 42.4832 21.1688 42.3943 21.8446 42.9275C22.2614 43.2607 22.3627 43.2831 23.1399 43.2831C23.7144 43.272 24.0636 43.2163 24.2326 43.1052C24.5592 42.8719 24.886 42.8832 25.2239 43.1164C25.6631 43.4275 26.7445 43.3719 27.3302 43.0053C27.8258 42.6943 28.0399 42.6387 28.0399 42.7943C28.0399 42.8498 28.2539 42.983 28.5018 43.1052C29.1212 43.3717 30.0111 43.3496 30.5406 43.0387L30.9462 42.8053L31.1828 43.1386C31.3179 43.3163 31.4192 43.5496 31.4192 43.6718C31.4192 43.7829 31.4981 44.0161 31.5882 44.1938C31.6783 44.3605 31.7572 44.6049 31.7572 44.7271C31.7572 44.8493 31.8361 45.127 31.9487 45.3381C32.1064 45.6713 32.1177 46.0046 32.0727 47.6819C32.0389 48.7705 32.0275 49.7149 32.0613 49.7815C32.0951 49.8704 32.3092 49.9259 32.5908 49.9259C33.2666 49.9259 33.4468 49.6925 33.4468 48.8594C33.4468 48.4928 33.5032 47.893 33.5707 47.5264C33.6383 47.1709 33.7285 46.0933 33.7735 45.1492C33.8299 43.7496 33.875 43.4275 34.0101 43.4053C34.3931 43.3386 34.5169 43.5719 34.5845 44.505C34.6859 45.7157 34.8661 47.0488 35.0126 47.5597C35.0801 47.793 35.1365 48.3374 35.1365 48.7705C35.1365 49.6925 35.3055 49.9259 35.9475 49.9259C36.6571 49.9259 36.7023 49.7812 36.8261 46.3489C36.8937 44.6827 36.9839 43.0941 37.0289 42.8164C37.1078 42.3387 37.1304 42.3165 37.4457 42.3499C38.1892 42.4276 39.0791 42.3832 39.3044 42.261C39.7887 42.0055 40.4646 41.3056 40.6561 40.8613C40.8025 40.5281 40.9489 40.3837 41.1742 40.3282C41.5685 40.2283 42.1205 39.6727 42.4471 39.0396C42.6498 38.6508 42.695 38.4396 42.6386 38.0286C42.571 37.5288 42.5823 37.5067 42.954 37.2845C43.4383 37.0069 43.8889 36.3068 44.0917 35.5515C44.2269 35.0627 44.2269 34.8961 44.0692 34.374C43.9791 34.0408 43.8551 33.7187 43.7988 33.6631C43.6524 33.4965 43.6749 33.3743 43.8664 33.3743C43.9566 33.3743 44.0354 33.3076 44.0354 33.2187C44.0354 33.141 44.103 33.0076 44.1932 32.941C44.4522 32.7299 44.6887 31.0858 44.4973 30.897C44.4297 30.8304 44.3733 30.6305 44.3733 30.4638C44.3733 30.2861 44.2043 29.9195 44.0016 29.6307L43.6186 29.0975L43.6749 27.9644C43.7199 26.9647 43.6975 26.7758 43.4722 26.3315C43.3371 26.0428 43.1792 25.8204 43.1229 25.8204C43.0666 25.8204 43.0216 25.7538 43.0216 25.6761C43.0216 25.5428 42.2444 24.9429 41.8727 24.7985C41.76 24.7541 41.6699 24.6429 41.6699 24.5541C41.6699 24.4763 41.591 24.2542 41.5009 24.0876C41.4108 23.9098 41.332 23.6766 41.332 23.5766C41.332 23.4767 41.2868 23.3543 41.2193 23.321C41.1629 23.2877 41.1067 23.099 41.1067 22.9101C41.1067 22.6768 41.0616 22.5879 40.949 22.6323C40.8589 22.6657 40.8026 22.6212 40.8138 22.5101C40.8251 22.3769 40.7461 22.3324 40.5772 22.3546C40.397 22.3768 40.3182 22.3324 40.3182 22.2213C40.3182 22.1102 40.2167 22.0436 40.0703 22.0436C39.9239 22.0436 39.7099 21.9659 39.5972 21.877C39.4733 21.7881 39.1578 21.7104 38.8876 21.7104C38.3581 21.7104 38.3131 21.6548 38.5722 21.3104C38.7525 21.0438 38.696 20.9327 38.3694 20.9327C38.2455 20.9327 38.054 20.8661 37.9639 20.7884C37.8625 20.6995 37.6035 20.5772 37.3895 20.4883C37.1754 20.4106 36.8374 20.2884 36.646 20.1995C36.4545 20.1217 36.1278 20.0551 35.9138 20.0662C35.6999 20.0662 35.3504 19.9997 35.1365 19.9108C34.8999 19.8109 34.3368 19.733 33.7285 19.7219C33.1766 19.7108 32.5795 19.6774 32.4106 19.6441C32.2529 19.6108 32.0839 19.6441 32.0388 19.6996C31.9938 19.7774 31.881 19.7552 31.7009 19.6441C31.5207 19.533 31.3517 19.4997 31.2278 19.5553C30.9913 19.6553 30.732 19.6775 28.2877 19.7442C27.2853 19.7664 26.4291 19.8219 26.3841 19.8552C26.3503 19.8996 26.249 19.8774 26.1588 19.7997C26.0124 19.6775 25.6855 19.6664 23.4778 19.6775H22.1825C21.9685 19.6775 21.4501 19.7108 21.0334 19.7553C20.504 19.8219 20.076 19.8107 19.5916 19.6996C18.9496 19.5553 18.9157 19.5442 18.9157 19.211C18.9157 18.8666 18.6567 18.4 18.3864 18.2333C18.3076 18.1889 18.2399 18.0779 18.2399 18.0001C18.2399 17.9113 18.1161 17.7669 17.9584 17.6669C17.7894 17.5558 17.6767 17.3781 17.6767 17.2114C17.6767 16.7338 17.4738 16.4003 17.0571 16.2004C16.4939 15.9338 16.2799 16.145 16.7642 16.5005C16.9557 16.6338 17.226 16.9781 17.3612 17.2559C17.4964 17.5336 17.778 18.0556 17.992 18.4C18.4539 19.1664 18.4427 19.4443 17.9133 20.7661C17.6205 21.5214 17.4513 21.7658 16.753 22.4434C15.8294 23.3431 15.4239 23.5544 15.4239 23.1322C15.4352 22.9878 15.5027 22.6768 15.5929 22.4324C15.8181 21.8103 15.7954 21.0438 15.5364 20.344C15.2098 19.4886 14.7478 19.1221 13.6328 18.8777C13.0695 18.7444 12.9681 18.7554 12.5851 18.9443C12.3599 19.0553 12.067 19.1553 11.9431 19.1553C11.639 19.1553 10.6816 20.1551 10.7153 20.4328C10.7603 20.7328 10.9631 20.7104 11.0082 20.3995C11.0307 20.2551 11.1208 20.1551 11.256 20.1551C11.3686 20.1551 11.4812 20.0773 11.5263 19.9884C11.5601 19.8996 11.7066 19.8218 11.853 19.8218C12.0107 19.8218 12.191 19.7441 12.2698 19.6552C12.3712 19.533 12.6416 19.4886 13.2498 19.4886C13.8806 19.4886 14.0946 19.533 14.1396 19.6552C14.1846 19.7441 14.2636 19.8218 14.3424 19.8218C14.5227 19.8218 14.9733 20.3218 14.9733 20.5217C14.9733 20.6105 15.0521 20.7438 15.1422 20.8216C15.2323 20.8993 15.3112 21.1438 15.3112 21.3771C15.3112 21.6104 15.2323 21.8547 15.1422 21.9325C15.0521 22.0102 14.9733 22.1879 14.9733 22.3212C14.9733 22.4545 14.8943 22.6324 14.8043 22.7101C14.7142 22.7879 14.6353 22.91 14.6353 22.9767C14.6353 23.1433 14.0496 23.7099 13.8806 23.7099C13.813 23.7099 13.7004 23.7877 13.6215 23.8765C13.5427 23.9654 13.3625 24.0432 13.2273 24.0432C13.0922 24.0432 12.9118 24.1209 12.833 24.2098C12.7316 24.3209 12.4725 24.3764 11.9769 24.3764C11.5939 24.3764 11.2335 24.432 11.1997 24.4986C11.1547 24.5541 10.9857 24.6652 10.828 24.7207C10.4 24.8762 10.6814 25.0095 11.4474 25.0206C12.0556 25.0206 12.2585 25.1317 12.2698 25.4427C12.2698 25.6204 10.3661 27.2312 9.78036 27.5311C9.11584 27.8866 8.38356 28.0754 7.98938 27.9866C7.80915 27.9532 7.51624 27.7755 7.32474 27.5978C6.62635 26.9313 6.19816 26.8092 4.7226 26.8314C3.25838 26.8536 3.14549 26.8202 2.90902 26.2314C2.83017 26.0316 2.67251 25.7649 2.55987 25.6316C2.43596 25.5094 2.28948 25.1872 2.23316 24.9428C2.08672 24.2763 2.14327 24.1649 4.95922 20.5661C5.29715 20.1329 5.52249 19.4441 5.57881 18.6777C5.6464 17.7446 5.92801 17.3002 6.90794 16.556C7.8428 15.8562 8.83423 15.4452 9.94932 15.2897C10.7828 15.1786 12.5626 15.3229 13.2948 15.5562C13.5763 15.6451 14.2073 15.734 14.6692 15.7451C15.1534 15.7674 15.5927 15.834 15.6716 15.9118C15.7504 15.9895 15.8744 16.045 15.9532 16.045C16.156 16.045 16.1335 15.5452 15.9308 15.3785C15.8407 15.3008 15.7618 15.1451 15.7618 15.034C15.7618 14.8563 15.8745 14.8342 16.967 14.8342C17.9132 14.8231 18.2174 14.8676 18.3638 15.0009C18.544 15.1564 18.7356 15.2119 19.5466 15.3008C19.6705 15.3119 19.8508 15.3784 19.9409 15.4451C20.031 15.5117 20.2336 15.6007 20.4026 15.6451C20.5716 15.6784 20.7745 15.7895 20.8758 15.8784C20.9772 15.9895 21.2588 16.045 21.6756 16.045C22.2275 16.045 22.3852 15.9895 22.7569 15.7118C22.9935 15.5229 23.2188 15.2673 23.2526 15.1452C23.3652 14.8008 24.1425 14.3788 24.6494 14.3788C25.0324 14.3788 25.1901 14.4677 25.8321 15.0453C26.5755 15.7118 26.9136 15.8673 26.9136 15.5452C26.9136 15.2008 25.8885 13.9344 25.6181 13.9344C25.5393 13.9344 25.4153 13.8567 25.3252 13.7567C25.2126 13.6235 24.9986 13.5901 24.3002 13.6234C23.647 13.6456 23.4216 13.6234 23.4216 13.5123C23.4216 13.3123 25.1449 11.0573 25.3026 11.0462C25.3702 11.0462 25.5506 10.8796 25.6858 10.6796C25.8209 10.4908 26.1137 10.1576 26.339 9.95761C26.5643 9.75766 26.8684 9.46883 27.0261 9.33553C27.1838 9.19111 27.4204 9.03548 27.5556 8.99104C27.7021 8.95772 27.9498 8.77991 28.1188 8.61337C28.4679 8.269 29.5607 7.82465 30.0451 7.82465C30.2253 7.82465 30.4619 7.74689 30.5858 7.65802C30.6984 7.56916 30.98 7.4914 31.194 7.4914C31.4079 7.4914 31.836 7.41364 32.1289 7.32477C32.7259 7.14703 34.3029 7.18047 34.5057 7.38042C34.6746 7.54697 34.7985 7.51366 34.7985 7.31371C34.7985 7.19151 34.8549 7.15825 35.0013 7.21379C35.1027 7.25822 35.6097 7.38036 36.1278 7.48033C36.6459 7.59142 37.2092 7.79142 37.3895 7.92472C37.5697 8.04692 37.8287 8.15791 37.9639 8.15791C38.0878 8.15791 38.4258 8.30231 38.7074 8.49116C38.9776 8.6689 39.2255 8.82441 39.2593 8.82441C39.2931 8.82441 39.3945 8.8912 39.4733 8.95785C39.5634 9.03561 40.0141 9.44668 40.4871 9.87983C41.0053 10.3353 41.4333 10.8351 41.5572 11.1017C41.6586 11.346 41.9627 11.7905 42.2218 12.1015C42.4696 12.4014 42.6837 12.7236 42.6837 12.8013C42.6837 12.8902 42.785 13.0902 42.9089 13.2457C43.2694 13.7011 43.9227 14.7008 43.9227 14.7786C43.9227 14.823 43.7087 14.8119 43.4496 14.7675C42.5711 14.6009 41.591 14.6453 41.3432 14.8674C40.9827 15.1895 40.5434 15.0675 40.2843 14.5454C40.1604 14.301 39.8676 13.9122 39.6311 13.6789C39.2144 13.2679 39.2028 13.2679 38.313 13.2679C37.4457 13.2679 37.4232 13.279 36.9727 13.6789C36.7248 13.9122 36.4996 14.1677 36.4658 14.2566C36.432 14.3899 36.3531 14.3676 36.0828 14.1788C35.7675 13.9566 35.4405 13.9011 34.5057 13.9233C33.9762 13.9344 33.3454 14.3899 33.0526 14.9675C32.6922 15.6895 32.9963 15.834 33.582 15.2119C34.0438 14.7232 34.8662 14.4787 35.7673 14.5675C36.1953 14.612 36.4882 14.5787 36.7473 14.4676C37.7722 13.9788 37.9752 13.9344 38.5384 14.0011C38.9551 14.0566 39.124 14.1343 39.1578 14.2787C39.1916 14.4009 39.2705 14.4897 39.3268 14.4897C39.3944 14.4897 39.586 14.6454 39.7662 14.8342C40.1379 15.2341 41.0955 15.5119 41.7037 15.4119C42.3683 15.3119 43.3146 15.5563 43.7651 15.9562C43.9903 16.1561 44.3283 16.4561 44.5085 16.6227C44.6886 16.7893 44.9027 16.9003 44.9816 16.867C45.0604 16.8336 45.4547 17.1336 45.849 17.5113C46.2544 17.9 46.7163 18.3001 46.8852 18.4112C47.1556 18.5778 47.1894 18.6665 47.1331 18.9443C47.0655 19.222 47.0881 19.2664 47.2908 19.2664C47.4147 19.2664 47.5386 19.3553 47.5837 19.4775C47.6175 19.5886 47.7415 19.7664 47.8654 19.8775C47.9892 19.9886 48.0906 20.1884 48.0906 20.3217C48.0906 20.4661 48.1694 20.6328 48.2708 20.7217C48.3946 20.8216 48.4286 20.966 48.3723 21.2326C48.316 21.5436 48.3384 21.5992 48.5186 21.5992C48.6876 21.5992 48.7552 21.6992 48.8003 22.0658C48.8341 22.3323 48.8114 22.599 48.7439 22.6768C48.665 22.7767 48.6763 22.8323 48.8115 22.8878C48.9467 22.9434 48.9803 23.0879 48.9579 23.5766C48.9466 23.9321 48.8904 24.2764 48.8453 24.3541C48.789 24.4319 48.8228 24.5097 48.9242 24.5541C49.1607 24.6429 49.1495 24.9096 48.8904 25.4206C48.7215 25.7427 48.6876 25.9094 48.7777 26.1205C48.8902 26.4204 48.8115 27.1202 48.6425 27.2201C48.5862 27.2535 48.5412 27.4201 48.5412 27.5868C48.5412 27.7644 48.4736 27.9643 48.3835 28.031C48.2934 28.1087 48.1807 28.3309 48.1356 28.5198C47.9892 29.1862 47.6626 29.7863 47.1445 30.3306C46.8629 30.6194 46.6262 30.9304 46.6262 31.0081C46.6262 31.0859 46.5812 31.1525 46.5136 31.1525C46.401 31.1525 44.824 32.6522 44.824 32.7633C44.824 32.8855 45.252 32.8076 45.3871 32.6521C45.466 32.5633 45.5787 32.4855 45.635 32.4855C45.6913 32.4855 45.8039 32.4189 45.894 32.3412C45.9729 32.2745 46.3559 31.9301 46.7389 31.5969C47.1105 31.2748 47.6738 30.6749 47.9667 30.2639C48.496 29.5641 49.3296 27.9645 49.3296 27.6645C49.3296 27.5757 49.4085 27.3645 49.4986 27.1978C49.5887 27.0201 49.6676 26.7536 49.6676 26.5981C49.6676 26.4425 49.7464 26.1204 49.8365 25.8761C50.028 25.3428 50.0618 23.0988 49.8816 22.4324C49.814 22.188 49.7239 21.7881 49.6676 21.5437C49.4535 20.4774 48.7888 19.122 47.9441 18.0112C47.2457 17.1003 46.2656 16.256 45.0716 15.5452C44.2719 15.0676 44.148 14.9008 44.2268 14.4676C44.2606 14.301 44.2044 14.012 44.1031 13.8122C44.0018 13.6122 43.9227 13.379 43.9227 13.3012C43.9227 13.2124 43.8552 13.0013 43.7651 12.8458C43.6863 12.6791 43.5059 12.3237 43.3708 12.046C43.0554 11.4018 42.9539 11.246 42.357 10.4352C41.6587 9.50209 40.2505 8.16911 39.6986 7.92472C39.5747 7.86918 39.3831 7.78025 39.2818 7.71367C39.1691 7.65813 38.9889 7.54694 38.8876 7.4914C38.7749 7.42474 38.6059 7.34703 38.5158 7.31371C38.223 7.20262 37.5696 6.91389 37.2542 6.74727C37.0965 6.66951 36.8712 6.60277 36.7473 6.60277C36.6346 6.60277 36.3418 6.52501 36.094 6.43614C35.7899 6.33061 34.7648 6.27782 33.744 6.27782ZM19.3114 20.0607C19.372 20.0496 19.479 20.0996 19.7155 20.1995C19.9295 20.2884 20.245 20.4884 20.414 20.6439C20.7406 20.9438 20.9433 21.0105 20.9433 20.8328C20.9433 20.7773 21.1123 20.6217 21.3263 20.4996C21.7205 20.2552 22.6781 20.1774 22.802 20.3661C22.8358 20.4328 23.0161 20.5439 23.1963 20.6439C23.5117 20.7994 23.5567 20.7882 23.8608 20.5327C24.379 20.1107 25.1226 20.1552 25.866 20.6662L26.4517 21.066L26.8685 20.6662C27.4317 20.1219 28.0513 20.0996 28.5694 20.5995L28.9186 20.9438L29.4817 20.5995C30.1576 20.1996 30.7773 20.1552 31.3517 20.4996C31.5769 20.6328 31.7572 20.7773 31.7572 20.8328C31.7572 20.8884 31.9149 20.9327 32.0951 20.9327C32.2866 20.9327 32.433 20.8882 32.433 20.8216C32.433 20.6661 33.2215 20.3551 33.6158 20.3551C34.0325 20.3551 34.7985 20.6662 34.7985 20.8328C34.7985 20.9216 34.9788 20.9327 35.3505 20.8883C36.229 20.7772 36.7475 20.8994 37.2205 21.3659C37.4571 21.5881 37.716 21.9325 37.8061 22.1325C37.93 22.4213 38.009 22.4879 38.1554 22.4324C38.5834 22.2546 38.8201 22.2657 39.3044 22.4768C39.9352 22.7656 40.0703 22.8768 40.4871 23.4211C40.7575 23.7765 40.8363 23.9987 40.8813 24.5875C40.9376 25.2872 40.949 25.3206 41.2419 25.3428C42.6272 25.4428 43.7763 27.5202 42.9653 28.4643C42.6049 28.8864 42.6161 28.9753 43.0328 29.3419C43.2131 29.5085 43.506 29.8974 43.6524 30.2084C43.9002 30.686 43.9341 30.8749 43.9003 31.6302C43.8777 32.1078 43.8101 32.5301 43.7425 32.5745C43.6749 32.6189 43.596 32.7411 43.551 32.841C43.5059 32.9632 43.4046 33.0077 43.2582 32.9632C43.1343 32.9299 42.9428 32.9299 42.8526 32.9743C42.7175 33.0187 42.7626 33.1521 43.1005 33.6187C43.506 34.1629 43.5285 34.2517 43.5285 35.0293C43.5285 35.5958 43.4835 35.8737 43.3934 35.9071C43.3145 35.9293 43.2468 36.018 43.2468 36.0958C43.2468 36.1736 43.0892 36.4068 42.8977 36.5957C42.8493 36.6416 42.8265 36.6073 42.786 36.6416C42.6567 36.912 42.419 36.9737 42.2502 36.8617C42.2398 36.8598 42.2327 36.8758 42.2218 36.8735C41.9065 36.8068 41.8951 36.8179 41.8951 37.1955C41.8951 37.4065 41.9515 37.6176 42.0078 37.6509C42.0754 37.6843 42.1205 37.8843 42.1205 38.0953C42.1205 38.3064 42.0754 38.5064 42.0078 38.5397C41.9515 38.5731 41.8951 38.7175 41.8951 38.8396C41.8951 39.1173 41.1742 39.8171 40.8927 39.8171C40.7801 39.8171 40.6336 39.695 40.566 39.5395C40.3745 39.1285 40.1829 39.1952 40.2055 39.6728C40.2505 40.5503 40.2056 40.7058 39.8 41.1501C39.5748 41.3945 39.3269 41.5945 39.2481 41.5945C39.1692 41.5945 39.0791 41.6501 39.0565 41.7056C39.034 41.7723 38.7298 41.8612 38.3807 41.8944C37.7724 41.9499 37.7161 41.9388 37.3895 41.6056C37.198 41.4167 36.9952 41.2613 36.9388 41.2613C36.8938 41.2613 36.7247 41.3946 36.5783 41.5724C36.4431 41.739 36.1615 41.9388 35.9701 42.0277C35.6547 42.1499 35.5532 42.1389 35.1815 41.9501C34.7197 41.7279 34.4606 41.7391 34.4606 41.9945C34.4606 42.2166 33.6384 42.5943 33.1203 42.5943C32.5797 42.5943 31.9488 42.2499 31.7685 41.85L31.6332 41.5501L31.1828 42.0055C30.766 42.4388 29.9324 42.8164 29.4142 42.8164C28.9637 42.8164 28.0399 42.2056 28.0399 41.9056C28.0399 41.7168 27.7246 41.8278 27.5556 42.0833C27.2403 42.5498 26.0236 43.0053 25.8547 42.7165C25.8209 42.661 25.6519 42.5832 25.483 42.5388C25.3027 42.5055 25.0887 42.3943 24.9761 42.3054C24.8184 42.1499 24.7395 42.161 24.3002 42.3499C23.1401 42.8497 23.1061 42.8609 22.6556 42.6721C22.4303 42.5832 22.1487 42.472 22.036 42.4387C21.9234 42.4054 21.7657 42.2166 21.6981 42.0389C21.5404 41.6279 21.2363 41.6056 20.842 41.9722C20.2113 42.5386 19.1636 42.5386 18.6004 41.9722C18.2738 41.6389 18.1611 41.6389 17.8006 41.9722C17.4852 42.2388 16.6854 42.5943 16.3474 42.5943C15.9758 42.5943 15.2548 42.161 14.8493 41.6834C14.4551 41.2391 14.4212 41.2168 14.1509 41.3612C13.7792 41.55 12.495 41.4278 12.495 41.1945C12.495 41.1057 12.4162 41.0391 12.3261 41.0391C12.1008 41.0391 11.9882 40.739 12.1347 40.5614C12.3149 40.3503 12.0445 40.0838 11.6502 40.0838C11.3235 40.0949 11.3123 40.0838 11.256 39.4617C11.2222 39.1174 11.1545 38.7953 11.1095 38.7397C11.0532 38.6953 10.7941 38.662 10.5239 38.673C10.1409 38.6841 10.0508 38.6508 10.062 38.5064C10.0733 38.3954 9.99432 38.3287 9.88167 38.3287C9.76911 38.3398 9.67904 38.2841 9.67904 38.1952C9.67904 38.1175 9.60007 38.0065 9.49869 37.951C9.37478 37.8843 9.3073 37.6177 9.26224 36.9623C9.18339 35.8849 9.10457 35.707 8.78917 35.8958C8.59775 36.018 8.50737 35.9735 8.05687 35.5626C7.75273 35.296 7.53875 34.9959 7.53875 34.8627C7.53875 34.7294 7.4599 34.5628 7.36979 34.485C7.1445 34.3074 7.15572 33.563 7.38101 33.1409C7.47112 32.9521 7.53868 32.6744 7.51615 32.5078C7.49362 32.2523 7.42595 32.2078 7.17822 32.23L6.86289 32.2523V31.4302C6.86289 30.9749 6.91927 30.5749 6.97559 30.5416C7.14455 30.4416 7.11065 30.0861 6.91916 29.9306C6.79525 29.8307 6.75027 29.6307 6.7728 29.3308C6.79533 28.9531 6.85166 28.8642 7.06568 28.842C7.20085 28.8198 7.31352 28.8531 7.31352 28.9198C7.31352 29.1308 7.67398 29.3752 7.96678 29.3752C8.13574 29.3752 8.42859 29.2863 8.60882 29.1752C8.89043 28.9975 8.98065 28.9864 9.17215 29.1085C9.37491 29.2307 9.4537 29.2308 9.73531 29.042C9.92681 28.9198 10.0957 28.7088 10.1295 28.5755C10.1858 28.3755 10.2872 28.3088 10.6364 28.2866C11.0757 28.2533 11.4812 28.0089 11.4812 27.7867C11.4812 27.5757 11.8531 27.2646 12.0896 27.2646C12.45 27.2535 12.7542 26.9758 12.9457 26.4537C13.1034 26.0205 13.1484 25.9871 13.5539 25.976C13.9031 25.9649 14.0383 25.887 14.2636 25.6094C14.4438 25.3872 14.6354 25.2539 14.7931 25.2761C15.3224 25.3094 15.4914 25.2538 15.6716 24.9318C15.8067 24.6874 15.9533 24.5985 16.1672 24.5985C16.5164 24.5985 16.8882 24.3208 16.8882 24.0432C16.8882 23.7877 17.1135 23.5988 17.4177 23.5988C17.6993 23.5988 17.947 23.2878 18.0597 22.7879C18.116 22.5657 18.2513 22.4212 18.5215 22.3102C19.2087 22.0324 19.3326 21.6548 18.9946 20.955C18.9045 20.7662 18.9045 20.6773 18.9946 20.6218C19.0509 20.5773 19.1411 20.4329 19.1862 20.2885C19.2369 20.1441 19.2509 20.0718 19.3114 20.0607ZM1.82774 25.4984C1.87279 25.4873 2.04175 25.6206 2.18811 25.7872C2.58236 26.2315 2.54868 26.6202 2.07557 27.0312C1.64753 27.3978 1.36582 27.4534 0.982907 27.2535C0.746355 27.1313 0.746319 27.1201 0.949078 26.9757C1.06172 26.8869 1.26446 26.8202 1.37711 26.8202C1.5686 26.8202 1.59113 26.7536 1.54607 26.2093C1.50101 25.6428 1.54607 25.5206 1.82774 25.4984Z" fill="black"/>
  <path d="M19.2765 22.9544C19.0737 23.1544 19.3328 23.3766 19.7834 23.3766C20.2002 23.3766 20.3353 23.4765 20.6395 24.032C20.876 24.4874 20.8873 24.754 20.6507 25.0984C20.448 25.3983 20.5043 25.7094 20.7634 25.7094C20.9887 25.7094 21.3942 25.0317 21.3942 24.6652C21.3942 24.2208 20.9999 23.4432 20.5944 23.11C20.2227 22.7989 19.5243 22.7101 19.2765 22.9544Z" fill="black"/>
  <path d="M35.6661 23.1322C35.5535 23.2433 35.4746 23.421 35.4746 23.5321C35.4746 23.6765 35.5647 23.7099 35.9252 23.6876C36.2631 23.6765 36.4208 23.721 36.5447 23.8876C36.7588 24.1653 36.7588 24.643 36.5447 24.8207C36.4546 24.8985 36.3758 25.0318 36.3758 25.1206C36.3758 25.3984 36.7024 25.4095 36.9953 25.1429C37.536 24.6319 37.2431 23.4877 36.4659 23.0989C36.0153 22.8878 35.8914 22.8878 35.6661 23.1322Z" fill="black"/>
  <path d="M28.8366 23.8201C28.7349 23.8279 28.6315 23.8542 28.5245 23.8987C28.4456 23.9209 28.3779 24.0764 28.3779 24.2209C28.3779 24.4764 28.4118 24.4875 28.7497 24.4319C29.4706 24.3097 29.9551 25.1872 29.5721 25.9426C29.2341 26.6091 29.4143 26.8757 29.9212 26.4425C30.2141 26.1981 30.2366 26.1204 30.2253 25.4427C30.2028 24.7429 30.1803 24.6874 29.7523 24.2653C29.4312 23.9404 29.1418 23.7966 28.8366 23.8201Z" fill="black"/>
  <path d="M23.3088 24.3208C23.2299 24.4097 23.1961 24.5541 23.2299 24.643C23.2637 24.7319 23.2186 24.8318 23.1285 24.8652C22.9258 24.9429 22.9145 25.5206 23.1173 25.465C23.1848 25.4317 23.2637 25.3095 23.2862 25.1762C23.3088 25.0429 23.4214 24.8763 23.5453 24.8096C23.7819 24.6874 23.917 24.7541 24.3563 25.1762C24.6042 25.4317 24.6154 26.3315 24.3676 26.6092C24.0071 27.0091 24.4915 27.2091 24.8858 26.8203C25.0547 26.6536 25.1111 26.4537 25.1111 25.9538C25.1111 25.2984 24.9871 25.0096 24.4352 24.4541C24.1198 24.1209 23.534 24.0542 23.3088 24.3208Z" fill="black"/>
  <path d="M38.4594 26.598C38.4256 26.6647 38.4256 26.8091 38.4594 26.9424C38.5157 27.0979 38.5946 27.1423 38.7636 27.0868C38.8987 27.0535 39.1466 27.0979 39.3606 27.2201C39.6535 27.3756 39.7661 27.5311 39.8562 27.8977C39.9689 28.2976 40.0252 28.3754 40.2617 28.3754C40.9038 28.3754 40.6447 27.5422 39.7999 26.8646C39.3268 26.4869 38.6171 26.3425 38.4594 26.598Z" fill="black"/>
  <path d="M13.7452 27.1423C13.3735 27.42 13.4862 27.6866 13.948 27.62C14.4887 27.5422 14.7478 27.831 14.7478 28.5309C14.7478 28.9752 14.7027 29.1307 14.5225 29.2418C14.2747 29.3862 14.331 29.7084 14.6126 29.7084C14.9731 29.7084 15.311 29.1529 15.311 28.5642C15.311 27.8755 14.9843 27.32 14.4436 27.0979C13.9705 26.8979 14.0719 26.8979 13.7452 27.1423Z" fill="black"/>
  <path d="M34.1919 27.2255C34.145 27.2282 34.0958 27.2341 34.0437 27.2424C33.8973 27.2646 33.7847 27.3534 33.7847 27.4422C33.7847 27.5311 33.6834 27.6978 33.5482 27.8311C33.3117 28.0644 33.3341 28.3754 33.5819 28.3754C33.6607 28.3754 33.7959 28.2753 33.8748 28.1532C34.055 27.8754 34.5845 27.8644 34.8323 28.131C35.0801 28.4087 35.1027 29.4306 34.8549 29.5306C34.7648 29.5639 34.6859 29.664 34.6859 29.7639C34.6859 30.0639 35.0126 30.086 35.3168 29.8194C35.5533 29.5973 35.587 29.4529 35.587 28.853C35.587 28.1754 35.5646 28.1199 35.1478 27.72C34.7437 27.3312 34.5206 27.206 34.1919 27.2255Z" fill="black"/>
  <path d="M18.7061 27.6089C18.6118 27.6089 18.5328 27.6645 18.3751 27.7755C18.1386 27.9311 18.0373 28.2532 18.2176 28.2754C18.2626 28.2865 18.4653 28.2976 18.668 28.3198C19.1862 28.3643 19.4904 28.7198 19.5016 29.2752C19.5016 29.6195 19.4454 29.764 19.2652 29.8973C19.0737 30.0306 19.0398 30.0973 19.1525 30.2195C19.3327 30.4416 19.5129 30.4084 19.7945 30.1195C20.3577 29.5308 19.9747 28.1866 19.1299 27.7755C18.9102 27.6645 18.8005 27.6089 18.7061 27.6089Z" fill="black"/>
  <path d="M25.1339 27.9532C24.9424 28.1421 25.179 28.3753 25.5507 28.3753C26.2829 28.3753 26.6208 29.164 26.2265 29.975C26.0914 30.2638 26.0125 30.5304 26.0576 30.5637C26.2829 30.7859 27.139 29.8861 27.139 29.4195C27.139 29.1085 26.7109 28.3642 26.373 28.0643C26.0576 27.7977 25.3592 27.731 25.1339 27.9532Z" fill="black"/>
  <path d="M29.8537 28.1531C29.5496 28.1531 29.3582 28.2087 29.3244 28.3198C29.223 28.5753 29.3806 28.7087 29.7748 28.7087C30.124 28.7087 30.4056 28.8975 30.8337 29.4196C30.9013 29.5085 30.969 29.8306 30.969 30.1305C30.969 30.5749 30.9239 30.7082 30.7211 30.8415C30.5634 30.9414 30.5071 31.0636 30.5522 31.1858C30.6648 31.4746 31.014 31.408 31.2843 31.0414C32.0278 30.0528 31.0815 28.1531 29.8537 28.1531Z" fill="black"/>
  <path d="M38.2863 29.1865C38.1349 29.1836 38.0033 29.2252 37.9076 29.3196C37.6147 29.6084 37.7273 29.8751 38.1328 29.8862C38.7636 29.9084 39.0227 30.0307 39.2255 30.4084C39.4958 30.9083 39.5296 31.7191 39.2817 31.9635C39.1015 32.1524 39.124 32.5967 39.3268 32.5967C39.3831 32.5967 39.5522 32.4746 39.7099 32.3301C39.969 32.108 40.0027 31.9858 39.9914 31.3304C39.9914 30.7638 39.9238 30.486 39.7436 30.1972C39.3719 29.6057 38.7404 29.1954 38.2863 29.1865Z" fill="black"/>
  <path d="M37.4209 30.2967C37.4361 30.3167 37.451 30.3369 37.4661 30.3569C37.4538 30.3319 37.4387 30.3117 37.4209 30.2967Z" fill="black"/>
  <path d="M10.6929 30.9304C10.5915 30.9304 10.4225 31.0193 10.3211 31.1304C10.0283 31.4414 10.0958 31.5969 10.5013 31.5969C11.1659 31.5969 11.3236 31.6969 11.4475 32.1746C11.5826 32.6633 11.5039 33.0411 11.211 33.3299C11.0195 33.5076 10.8054 33.5409 10.8054 33.3743C10.8054 33.3077 10.7266 33.2632 10.6365 33.2632C10.5464 33.2632 10.4675 33.3298 10.4675 33.3964C10.4788 33.6186 10.7605 33.9297 10.952 33.9297C11.2561 33.9297 11.8306 33.5298 11.9996 33.2077C12.1798 32.8633 12.2136 32.0413 12.0446 32.0413C11.9883 32.0413 11.9319 31.9746 11.9319 31.8968C11.9319 31.5524 11.1435 30.9304 10.6929 30.9304Z" fill="black"/>
  <path d="M16.8192 31.1594C16.6404 31.1636 16.4997 31.2691 16.3926 31.4746C16.1786 31.8634 16.2348 31.9301 16.7192 31.8523C17.0008 31.8079 17.1473 31.8523 17.3276 32.03C17.6204 32.3188 17.643 32.9855 17.3726 33.2854C17.1248 33.552 17.3275 33.763 17.7218 33.6631C17.9358 33.6075 18.0146 33.5185 18.0146 33.3186C18.0146 33.1742 18.071 33.0187 18.1273 32.9853C18.4315 32.7965 18.0484 31.8857 17.4739 31.4525C17.2148 31.2525 16.998 31.1553 16.8192 31.1594Z" fill="black"/>
  <path d="M21.4058 31.4684C21.3386 31.463 21.2703 31.463 21.2011 31.4689C21.1274 31.4751 21.0526 31.488 20.9772 31.5081C20.7745 31.5636 20.6055 31.6525 20.6055 31.7081C20.6055 31.8747 21.011 32.0413 21.394 32.0413C22.1487 32.0413 22.4303 32.93 21.8783 33.5076C21.6192 33.7742 21.5968 33.8409 21.732 33.9297C22.0248 34.1186 22.2501 34.052 22.4979 33.7076C23.1513 32.8387 22.4126 31.5492 21.4058 31.4684Z" fill="black"/>
  <path d="M35.5757 31.4858C35.2716 31.4858 35.1025 31.5414 35.0574 31.6636C34.9673 31.8969 35.1251 32.019 35.5869 32.0634C35.9812 32.0968 35.9812 32.0968 36.015 32.6745C36.0375 33.0299 36.0037 33.2632 35.9361 33.2632C35.7897 33.2632 35.7671 33.7741 35.9023 33.863C35.9586 33.8963 36.1277 33.7964 36.2966 33.6409C36.5557 33.4076 36.6007 33.2743 36.6007 32.7299C36.6007 31.8968 36.2629 31.4858 35.5757 31.4858Z" fill="black"/>
  <path d="M25.8208 31.8412C25.4829 32.2189 25.6068 32.3856 26.17 32.3078C26.5756 32.2523 26.6995 32.2856 26.9473 32.5189C27.3641 32.8854 27.3641 33.4853 26.9698 33.7963C26.6431 34.0518 26.6094 34.2073 26.8684 34.3073C27.1726 34.4184 27.3641 34.3851 27.4429 34.174C27.488 34.074 27.5894 33.9185 27.6682 33.8408C27.7471 33.763 27.8146 33.4853 27.8146 33.2298C27.8146 32.1078 26.4517 31.1636 25.8208 31.8412Z" fill="black"/>
  <path d="M32.2868 32.1522C32.0728 32.1522 31.87 32.1856 31.8362 32.23C31.7911 32.2633 31.7573 32.3967 31.7573 32.5078C31.7573 32.6633 31.8475 32.7078 32.1291 32.7078C32.8725 32.7189 33.2668 33.4075 32.9289 34.1073C32.7036 34.5739 32.7936 34.7073 33.1991 34.4629C33.4695 34.2963 33.5033 34.1963 33.5371 33.6187C33.5709 32.9744 33.5596 32.9521 33.1091 32.5633C32.7824 32.2633 32.5572 32.1522 32.2868 32.1522Z" fill="black"/>
  <path d="M14.3197 34.3962C14.2409 34.474 14.1846 34.6184 14.1846 34.7295C14.1846 34.885 14.2747 34.9294 14.6239 34.9294C14.9731 34.9294 15.1195 34.9961 15.2997 35.2182C15.6264 35.6292 15.5926 35.9625 15.1758 36.429C14.883 36.7623 14.8492 36.8512 14.9843 36.94C15.2434 37.1067 15.3786 37.0511 15.694 36.6845C16.122 36.1736 16.1108 35.3071 15.6827 34.8516C15.1758 34.3407 14.5788 34.1407 14.3197 34.3962Z" fill="black"/>
  <path d="M28.2652 34.7295C27.9385 35.085 27.9723 35.3071 28.344 35.2183C28.5017 35.1738 28.7834 35.1961 28.9523 35.2627C29.2114 35.3738 29.279 35.4849 29.3466 35.8737C29.4367 36.4846 29.3466 36.7513 28.9974 36.9068C28.8284 36.9845 28.7158 37.1289 28.7158 37.2734C28.7158 37.4733 28.7608 37.4955 29.0312 37.4289C29.2001 37.3955 29.4367 37.2622 29.5493 37.1512C29.8535 36.8512 30.0788 36.1625 29.9436 35.9181C29.8873 35.807 29.8422 35.6404 29.8422 35.5293C29.8422 35.2738 29.0086 34.4851 28.7383 34.4851C28.6031 34.4851 28.4004 34.5962 28.2652 34.7295Z" fill="black"/>
  <path d="M35.4084 34.617C35.2803 34.6295 35.1762 34.7072 34.9791 34.8627L34.6523 35.1294L34.9002 35.2627C35.0354 35.3293 35.2944 35.3626 35.4633 35.3181C35.6774 35.2737 35.8575 35.3181 36.0716 35.4848C36.3306 35.6847 36.3758 35.8069 36.3758 36.2735C36.3758 36.629 36.3082 36.8957 36.2069 36.9956C36.1167 37.0956 36.0379 37.2622 36.0379 37.3844C36.0379 37.6177 36.387 37.8288 36.4545 37.6288C36.4771 37.5621 36.6011 37.3955 36.725 37.2511C36.8827 37.0623 36.939 36.8401 36.939 36.3402C36.939 35.5071 36.6461 35.0183 35.9815 34.7628C35.6886 34.6572 35.5365 34.6045 35.4084 34.617Z" fill="black"/>
  <path d="M17.1921 34.785C17.0569 34.9072 17.102 35.2294 17.2822 35.3738C17.5526 35.5959 17.4962 36.3291 17.1696 36.7512C16.8204 37.2067 16.8204 37.2622 17.1583 37.2622C17.5976 37.2622 18.0144 36.6179 18.0144 35.9403C18.0144 35.6404 17.9581 35.3515 17.8905 35.3182C17.8342 35.2738 17.7328 35.1183 17.6765 34.9739C17.5751 34.7184 17.3498 34.6295 17.1921 34.785Z" fill="black"/>
  <path d="M23.2302 36.9956C23.1513 37.1955 23.3654 37.3732 23.7146 37.3732C23.9962 37.3732 24.2215 37.7509 24.2327 38.2508C24.244 38.5285 24.1651 38.6729 23.9286 38.8618C23.6019 39.1173 23.6019 39.1173 23.8385 39.2506C24.1651 39.4172 24.1651 39.4172 24.4918 39.0728C24.7171 38.8285 24.7734 38.6507 24.7734 38.1842C24.7734 37.6954 24.7171 37.5399 24.4242 37.2066C24.1539 36.9067 23.9849 36.8178 23.692 36.8178C23.433 36.8178 23.2753 36.8845 23.2302 36.9956Z" fill="black"/>
  <path d="M20.3353 37.4844C20.0875 37.4844 19.8058 37.5289 19.7157 37.5845C19.4454 37.7511 19.6594 38.0399 20.0649 38.0399C20.538 38.051 20.8084 38.251 20.9435 38.7064C21.0562 39.0952 20.8423 39.8172 20.617 39.8172C20.4255 39.8172 20.4705 40.2616 20.662 40.3283C20.7634 40.3727 20.9324 40.2838 21.0901 40.0839C21.7997 39.2174 21.7996 39.0063 21.0675 37.8954C20.8309 37.5288 20.7521 37.4844 20.3353 37.4844Z" fill="black"/>
  <path d="M30.552 38.273C30.3042 38.5174 30.5295 38.7062 31.0251 38.7062C31.4419 38.7062 31.5546 38.7618 31.7461 39.0284C32.0164 39.4061 32.0502 39.9948 31.8249 40.2503C31.5658 40.5391 31.5546 40.8724 31.8136 40.9057C32.3881 40.9835 32.7936 39.5172 32.3543 38.9395C31.8362 38.2841 31.6447 38.1508 31.1603 38.1508C30.89 38.1508 30.6196 38.2064 30.552 38.273Z" fill="black"/>
  <path d="M13.8693 38.4509C13.5989 38.4842 13.4638 38.5731 13.3849 38.7841C13.2385 39.1729 13.3173 39.2173 13.8468 39.0396C14.1734 38.9285 14.3649 38.9285 14.5564 39.0063C14.8268 39.1285 15.1985 39.7506 15.1985 40.0838C15.1985 40.4393 15.5252 40.2615 15.604 39.8727C15.6603 39.5284 15.6153 39.4173 15.2548 38.9841C15.0295 38.7064 14.7817 38.4842 14.6916 38.4842C14.6127 38.4842 14.4776 38.462 14.3874 38.4509C14.3086 38.4286 14.072 38.4286 13.8693 38.4509Z" fill="black"/>
  <path d="M42.0898 6.89749C42.1354 6.94085 42.1812 6.98405 42.2273 7.02686C42.213 6.95313 42.1699 6.91175 42.0898 6.89749Z" fill="black"/>
  <path d="M4.50877 12.9458C4.11452 12.9902 3.75406 13.0791 3.72027 13.1457C3.67521 13.2013 3.50624 13.2902 3.33728 13.3235C3.15705 13.3679 2.98808 13.479 2.95429 13.5568C2.92049 13.6456 2.84164 13.7123 2.76279 13.7012C2.46992 13.6678 2.24463 13.7234 2.24463 13.8234C2.24463 14.0344 2.58256 14.0789 2.79658 13.89C2.90923 13.79 3.13452 13.7123 3.30348 13.7123C3.47245 13.7123 3.72027 13.6456 3.85544 13.5568C3.99061 13.4679 4.44119 13.3679 4.85797 13.3235C5.27475 13.2902 5.65774 13.2013 5.69154 13.1346C5.77039 13.0124 5.53383 12.8236 5.34234 12.8347C5.28602 12.8458 4.90303 12.8902 4.50877 12.9458Z" fill="black"/>
  <path d="M28.9975 14.1343C28.8172 14.2343 28.5356 14.412 28.4004 14.512C27.9386 14.823 27.6457 15.6006 27.9273 15.7673C28.04 15.8339 28.4906 15.4451 28.4906 15.2674C28.4906 15.2007 28.5469 15.1563 28.6032 15.1563C28.6708 15.1563 28.8736 15.0452 29.0538 14.923C29.4706 14.612 30.2929 14.6786 30.6871 15.0452C31.0701 15.4007 31.96 15.8783 32.0501 15.7895C32.1628 15.6895 30.98 14.3232 30.6308 14.1343C30.1464 13.8899 29.448 13.8899 28.9975 14.1343Z" fill="black"/>
  <path d="M32.2642 15.8229C32.2191 15.8895 32.3205 15.934 32.4782 15.934C32.6359 15.934 32.7711 15.8784 32.7711 15.8229C32.7711 15.7562 32.6697 15.7118 32.557 15.7118C32.4331 15.7118 32.298 15.7562 32.2642 15.8229Z" fill="black"/>
  <path d="M23.3398 19.5377C23.3668 19.5932 23.4265 19.6055 23.5009 19.5566C23.4473 19.5498 23.3936 19.5435 23.3398 19.5377Z" fill="black"/>
  <path d="M14.4101 20.6781C14.4038 20.6806 14.3974 20.6831 14.3911 20.6856C14.3975 20.698 14.4037 20.7105 14.4098 20.7232C14.4099 20.7235 14.41 20.7237 14.4101 20.724L14.4101 20.6781Z" fill="black"/>
  <path d="M9.08353 21.8737C9.03968 21.8909 8.99747 21.9658 8.98057 22.0657C8.95804 22.2435 8.85674 22.3323 8.66524 22.3546C8.50754 22.3768 8.29347 22.4769 8.16957 22.5768C7.91048 22.8212 6.98673 22.7989 6.79523 22.5546C6.7717 22.5197 6.7371 22.4895 6.69969 22.4624C6.63271 22.4587 6.56567 22.4555 6.49855 22.453C6.3507 22.4462 6.20255 22.4464 6.05469 22.4426C6.21379 22.8496 6.6959 23.2351 7.17821 23.3322C7.67384 23.4322 8.38354 23.121 8.85665 22.61C9.22837 22.199 9.30732 21.9992 9.12709 21.877C9.11301 21.8686 9.09815 21.868 9.08353 21.8737Z" fill="black"/>
</svg>
